 http://www.torrentday.com - Your Key To The Scene.

 
http://www.torrentday.com :  Clean RAR Scene Releases!


Enjoy =)

...................................NFO:....................................

.SPRiNTER proudly presents...



The.Duel.At.Silver.Creek.1952.iNTERNAL.DVDRip.XviD-SPRiNTER 
http://www.imdb.com/title/tt0044573/
Subtitles: Norsk, Svenska, Dansk, Finish, English, Italiano, Espanol, Nederlands, 	              Francais, Czech, Hungarian, Polish
Date: 2010.02


Director: Don Siegel
Genre: Western
Plot: A gang of claim jumpers is infesting the territory, gaining ownership of
undermanned mining operations through extortion...and leaving no live witnesses. But
one victim, quick-drawing gambler Luke Cromwell, escapes. Meanwhille,
Marshal Lightnin' Tyrone is also after the gang; recovering from one raid, he meets
femme fatale Opal Lacy, who may not be healthy for him to know. When Luke, now
calling himself the Silver Kid, joins forces with Marshal Tyrone, the gang had
better watch out ...unless something drives a wedge between the new allies.


Cast:

 Audie Murphy ...  Luke Cromwell - The Silver Kid 
 Faith Domergue ...  Opal Lacy 
 Stephen McNally ...  Marshal Lightning Tyrone 
 Susan Cabot ...  Jane 'Dusty' Fargo 
 Gerald Mohr ...  Rod Lacy 
 Eugene Iglesias ...  Johnny Sombrero 
 James Anderson ...  Rat Face Blake (as Kyle James) 
 Walter Sande ...  Pete Fargo 
 Lee Marvin ...  Tinhorn Burgess 
 George Eldredge ...  Jim Ryan - Bartender 


Release notes:
Enjoy!

Stats:
Format                           : AVI
Format/Info                      : Audio Video Interleave
File size                        : 700 MiB
Duration                         : 1h 13mn
Overall bit rate                 : 1 329 Kbps
Writing application              : VirtualDubMod 1.5.10.2 (build 2542/release)
Writing library                  : VirtualDubMod build 2542/release

Video
ID                               : 0
Format                           : MPEG-4 Visual
Format profile                   : AdvancedSimple@L5
Format settings, BVOP            : Yes
Format settings, QPel            : No
Format settings, GMC             : No warppoints
Format settings, Matrix          : Default (H.263)
Codec ID                         : XVID
Codec ID/Hint                    : XviD
Duration                         : 1h 13mn
Bit rate                         : 1 239 Kbps
Width                            : 608 pixels
Height                           : 448 pixels
Display aspect ratio             : 4:3
Frame rate                       : 25.000 fps
Resolution                       : 24 bits
Colorimetry                      : 4:2:0
Scan type                        : Progressive
Bits/(Pixel*Frame)               : 0.182
Stream size                      : 652 MiB (93%)
Writing library                  : XviD 1.2.1 (UTC 2008-12-04)

Audio
ID                               : 1
Format                           : MPEG Audio
Format version                   : Version 1
Format profile                   : Layer 3
Codec ID                         : 55
Codec ID/Hint                    : MP3
Duration                         : 1h 13mn
Bit rate mode                    : Variable
Bit rate                         : 77.1 Kbps
Minimum bit rate                 : 32.0 Kbps
Channel(s)                       : 1 channel
Sampling rate                    : 48.0 KHz
Resolution                       : 16 bits
Stream size                      : 40.6 MiB (6%)
Alignment                        : Aligned on interleaves
Interleave, duration             : 24 ms (0.60 video frame)
Interleave, preload duration     : 239 ms
Writing library                  : LAME3.95 
Encoding settings                : -m m -V 4 -q 3 -lowpass 18 --vbr-old -b 32